<?xml version="1.0" encoding="utf-8"?>
<!-- Generator: Adobe Illustrator 16.0.0, SVG Export Plug-In . SVG Version: 6.00 Build 0)  -->
<!DOCTYPE svg PUBLIC "-//W3C//DTD SVG 1.1//EN" "http://www.w3.org/Graphics/SVG/1.1/DTD/svg11.dtd">
<svg version="1.1" id="Layer_1" xmlns="http://www.w3.org/2000/svg" xmlns:xlink="http://www.w3.org/1999/xlink" x="0px" y="0px"
	 width="32px" height="32px" viewBox="0 0 32 32" enable-background="new 0 0 32 32" xml:space="preserve">
<linearGradient id="SVGID_1_" gradientUnits="userSpaceOnUse" x1="3.104" y1="20.2119" x2="13.0447" y2="30.1526">
	<stop  offset="0" style="stop-color:#ffffff"/>
	<stop  offset="1" style="stop-color:#ffffff;stop-opacity:0.75"/>
</linearGradient>
<path fill-rule="evenodd" clip-rule="evenodd" fill="url(#SVGID_1_)" d="M16,29.029V31c-3.841,0.004-7.682-1.461-10.612-4.398
	C2.466,23.674,1.004,19.837,1,16h1.998c0,3.334,1.27,6.668,3.808,9.212C9.345,27.757,12.673,29.029,16,29.029z"/>
<linearGradient id="SVGID_2_" gradientUnits="userSpaceOnUse" x1="19.7031" y1="29.4141" x2="29.1649" y2="19.9523">
	<stop  offset="0" style="stop-color:#ffffff;stop-opacity:0.75"/>
	<stop  offset="1" style="stop-color:#ffffff;stop-opacity:0.5"/>
</linearGradient>
<path fill-rule="evenodd" clip-rule="evenodd" fill="url(#SVGID_2_)" d="M26.602,26.602C23.674,29.53,19.838,30.995,16,31v-1.971
	c3.334-0.001,6.669-1.273,9.213-3.817c2.543-2.544,3.815-5.878,3.815-9.212H31C30.995,19.837,29.53,23.674,26.602,26.602z"/>
<linearGradient id="SVGID_3_" gradientUnits="userSpaceOnUse" x1="30.3438" y1="13.2363" x2="18.7567" y2="1.6493">
	<stop  offset="0" style="stop-color:#ffffff;stop-opacity:0.5"/>
	<stop  offset="1" style="stop-color:#ffffff;stop-opacity:0.25"/>
</linearGradient>
<path fill-rule="evenodd" clip-rule="evenodd" fill="url(#SVGID_3_)" d="M29.028,16c0.001-3.327-1.271-6.655-3.815-9.194
	C22.669,4.268,19.334,2.999,16,2.999V1c3.838,0.004,7.674,1.467,10.602,4.388C29.539,8.318,31.005,12.159,31,16H29.028z"/>
<linearGradient id="SVGID_4_" gradientUnits="userSpaceOnUse" x1="2.2471" y1="12.6416" x2="12.6435" y2="2.2452">
	<stop  offset="0" style="stop-color:#ffffff;stop-opacity:0"/>
	<stop  offset="1" style="stop-color:#ffffff;stop-opacity:0.25"/>
</linearGradient>
<path fill-rule="evenodd" clip-rule="evenodd" fill="url(#SVGID_4_)" d="M16,2.999c-3.327,0-6.655,1.269-9.194,3.808
	S2.998,12.673,2.998,16H1C0.995,12.159,2.457,8.318,5.388,5.388C8.318,2.458,12.159,0.996,16,1V2.999z"/>
<linearGradient id="SVGID_5_" gradientUnits="userSpaceOnUse" x1="10.2485" y1="17.7012" x2="14.8871" y2="22.3397">
	<stop  offset="0" style="stop-color:#ffffff"/>
	<stop  offset="1" style="stop-color:#ffffff;stop-opacity:0.75"/>
</linearGradient>
<path fill-rule="evenodd" clip-rule="evenodd" fill="url(#SVGID_5_)" d="M16,23c-1.791,0.002-3.585-0.683-4.953-2.053
	C9.686,19.58,9.004,17.791,9,16h1.99c-0.001,1.281,0.487,2.562,1.465,3.54c0.979,0.979,2.261,1.467,3.544,1.465V23z"/>
<linearGradient id="SVGID_6_" gradientUnits="userSpaceOnUse" x1="6.6802" y1="18.9531" x2="13.9702" y2="26.2432">
	<stop  offset="0" style="stop-color:#ffffff"/>
	<stop  offset="1" style="stop-color:#ffffff;stop-opacity:0.75"/>
</linearGradient>
<path fill-rule="evenodd" clip-rule="evenodd" fill="url(#SVGID_6_)" d="M16,24.989V27c-2.817,0.005-5.635-1.07-7.783-3.227
	C6.076,21.627,5.004,18.814,5,16h2.005c0.004,2.299,0.88,4.599,2.629,6.351C11.391,24.114,13.697,24.993,16,24.989z"/>
<linearGradient id="SVGID_7_" gradientUnits="userSpaceOnUse" x1="17.46" y1="21.9912" x2="21.8755" y2="17.5757">
	<stop  offset="0" style="stop-color:#ffffff;stop-opacity:0.75"/>
	<stop  offset="1" style="stop-color:#ffffff;stop-opacity:0.5"/>
</linearGradient>
<path fill-rule="evenodd" clip-rule="evenodd" fill="url(#SVGID_7_)" d="M16,23v-1.995c1.28-0.002,2.561-0.49,3.537-1.465
	c0.98-0.978,1.47-2.259,1.47-3.54H23c-0.003,1.791-0.687,3.58-2.052,4.947S17.792,22.998,16,23z"/>
<linearGradient id="SVGID_8_" gradientUnits="userSpaceOnUse" x1="22.4229" y1="14.9814" x2="17.0155" y2="9.5741">
	<stop  offset="0" style="stop-color:#ffffff;stop-opacity:0.5"/>
	<stop  offset="1" style="stop-color:#ffffff;stop-opacity:0.25"/>
</linearGradient>
<path fill-rule="evenodd" clip-rule="evenodd" fill="url(#SVGID_8_)" d="M16,9c1.792,0.002,3.583,0.684,4.949,2.046
	c1.372,1.367,2.055,3.162,2.052,4.954h-1.994c-0.001-1.273-0.49-2.548-1.469-3.521c-0.977-0.972-2.258-1.458-3.538-1.46V9z"/>
<linearGradient id="SVGID_9_" gradientUnits="userSpaceOnUse" x1="26.3828" y1="14.1099" x2="17.8854" y2="5.6124">
	<stop  offset="0" style="stop-color:#ffffff;stop-opacity:0.5"/>
	<stop  offset="1" style="stop-color:#ffffff;stop-opacity:0.25"/>
</linearGradient>
<path fill-rule="evenodd" clip-rule="evenodd" fill="url(#SVGID_9_)" d="M16,7.006V5c2.814,0.004,5.627,1.076,7.774,3.217
	C25.93,10.366,27.005,13.183,27,16h-2.012c0.005-2.303-0.873-4.607-2.637-6.365C20.598,7.886,18.299,7.01,16,7.006z"/>
<linearGradient id="SVGID_10_" gradientUnits="userSpaceOnUse" x1="9.853" y1="14.7036" x2="14.7045" y2="9.8522">
	<stop  offset="0" style="stop-color:#ffffff;stop-opacity:0"/>
	<stop  offset="1" style="stop-color:#ffffff;stop-opacity:0.25"/>
</linearGradient>
<path fill-rule="evenodd" clip-rule="evenodd" fill="url(#SVGID_10_)" d="M16,9v2.02c-1.283-0.002-2.565,0.485-3.544,1.46
	c-0.977,0.973-1.465,2.247-1.465,3.521h-1.99c-0.003-1.792,0.679-3.587,2.046-4.954C12.415,9.68,14.209,8.998,16,9z"/>
<linearGradient id="SVGID_11_" gradientUnits="userSpaceOnUse" x1="6.0488" y1="13.6719" x2="13.6731" y2="6.0476">
	<stop  offset="0" style="stop-color:#ffffff;stop-opacity:0"/>
	<stop  offset="1" style="stop-color:#ffffff;stop-opacity:0.25"/>
</linearGradient>
<path fill-rule="evenodd" clip-rule="evenodd" fill="url(#SVGID_11_)" d="M16,5v2.006c-2.303-0.004-4.609,0.872-6.366,2.629
	C7.877,11.393,7.001,13.697,7.005,16H5c-0.004-2.817,1.067-5.634,3.217-7.783C10.365,6.068,13.183,4.996,16,5z"/>
<linearGradient id="SVGID_12_" gradientUnits="userSpaceOnUse" x1="18.5742" y1="25.6953" x2="25.5131" y2="18.7565">
	<stop  offset="0" style="stop-color:#ffffff;stop-opacity:0.75"/>
	<stop  offset="1" style="stop-color:#ffffff;stop-opacity:0.5"/>
</linearGradient>
<path fill-rule="evenodd" clip-rule="evenodd" fill="url(#SVGID_12_)" d="M16,27v-2.011c2.299-0.005,4.598-0.883,6.352-2.639
	c1.755-1.752,2.633-4.052,2.637-6.351H27c-0.004,2.814-1.079,5.627-3.226,7.773C21.627,25.921,18.814,26.996,16,27z"/>
</svg>
