<svg xmlns="http://www.w3.org/2000/svg" viewBox="0 0 28 28"><path d="M24.3 9.5c-.9 0-1.3.6-1.3 1.5v7c0 .9.3 1.3 1.3 1.3.9 0 1.7-.7 1.7-1.7v-6.5c0-.9-.8-1.6-1.7-1.6zm-20.6 0c-.9 0-1.7.7-1.7 1.6v6.5c0 .9.8 1.7 1.7 1.7 1 0 1.3-.4 1.3-1.3v-7c0-.9-.3-1.5-1.3-1.5zM6 10v12c0 .7 1.3 1 2 1l1.3-.3v3.6c0 .9.8 1.7 1.7 1.7.9 0 2-1.1 2-2v-3h2l.4 3.3c0 .9.8 1.7 1.7 1.7.9 0 1.7-.7 1.7-1.7v-3.6l2.2.3c.7 0 1-.3 1-1V10H6zM17.6 3.3l1.4-2c.1-.1.1-.3 0-.3-.1-.1-.3 0-.3.1l-1.5 2c-1-.4-2-.6-3.2-.6-1.1 0-2.2.2-3.1.6l-1.5-2C9.3 1 9.2 1 9 1c-.1.1-.1.3 0 .4l1.4 2C8.2 4.3 6.2 6.8 6 9h16c-.2-2.2-2.2-4.7-4.4-5.7zm-6.8 3.1c-.5 0-.8-.4-.8-.8s.4-.8.8-.8c.5 0 .8.4.8.8s-.3.8-.8.8zm6.5 0c-.5 0-.8-.4-.8-.8s.4-.8.8-.8.8.4.8.8-.3.8-.8.8z"/></svg>