<?xml version="1.0" encoding="utf-8"?>
<!-- Generator: Adobe Illustrator 16.0.0, SVG Export Plug-In . SVG Version: 6.00 Build 0)  -->
<!DOCTYPE svg PUBLIC "-//W3C//DTD SVG 1.1//EN" "http://www.w3.org/Graphics/SVG/1.1/DTD/svg11.dtd">
<svg version="1.1" id="Layer_1" xmlns="http://www.w3.org/2000/svg" xmlns:xlink="http://www.w3.org/1999/xlink" x="0px" y="0px"
	 width="16px" height="16px" viewBox="0 0 16 16" enable-background="new 0 0 16 16" xml:space="preserve">
<g>
	<path fill="#010101" d="M15.143,7.996c0,0-2.883,4.975-7.162,4.975c-4.278,0-7.161-4.975-7.161-4.975S3.703,3,7.981,3
		C12.26,3,15.143,7.996,15.143,7.996z M11.488,7.996c0-1.929-1.58-3.508-3.507-3.508c-1.928,0-3.507,1.579-3.507,3.508
		c0,1.927,1.58,3.506,3.507,3.506C9.908,11.502,11.488,9.923,11.488,7.996z M7.981,6.416c-0.863,0-1.561,0.734-1.561,1.58
		c0,0.862,0.698,1.559,1.561,1.559c0.845,0,1.58-0.697,1.58-1.559C9.561,7.15,8.826,6.416,7.981,6.416z"/>
</g>
</svg>
