<?xml version="1.0" encoding="utf-8"?>
<!-- Generator: Adobe Illustrator 16.0.0, SVG Export Plug-In . SVG Version: 6.00 Build 0)  -->
<!DOCTYPE svg PUBLIC "-//W3C//DTD SVG 1.1//EN" "http://www.w3.org/Graphics/SVG/1.1/DTD/svg11.dtd">
<svg version="1.1" id="Layer_1" xmlns="http://www.w3.org/2000/svg" xmlns:xlink="http://www.w3.org/1999/xlink" x="0px" y="0px"
	 width="10px" height="15.062px" viewBox="0 0 10 15.062" enable-background="new 0 0 10 15.062" xml:space="preserve">
<image display="none" overflow="visible" width="1024" height="768" xlink:href="../../../private/var/folders/6k/8jjg_tx9731dtvl9q2vm8m60t9265x/T/com.apple.mail/com.apple.mail.drag-T0x7f83d9c19210.tmp.w1qm1p/Файл_публичный.png"  transform="matrix(1 0 0 1 -854 -683.9688)">
</image>
<g>
	<path d="M4.961,0.156c-2.087,0-3.779,1.609-3.779,3.593c0,1.987,1.692,3.596,3.779,3.596c2.088,0,3.781-1.608,3.781-3.596
		C8.742,1.766,7.049,0.156,4.961,0.156z M4.961,5.516c-1.024,0-1.857-0.789-1.857-1.767c0-0.975,0.833-1.767,1.857-1.767
		c1.026,0,1.859,0.792,1.859,1.767C6.82,4.727,5.987,5.516,4.961,5.516z"/>
	<g>
		<path d="M4.96,10.665c-1.938,0-3.63-0.588-4.643-1.613c-0.502-0.509-0.475-1.306,0.059-1.783C0.91,6.793,1.75,6.818,2.249,7.327
			c0.492,0.496,1.556,0.819,2.712,0.819c1.155,0,2.219-0.321,2.711-0.819c0.499-0.509,1.339-0.534,1.873-0.059
			c0.533,0.478,0.561,1.274,0.058,1.783C8.589,10.077,6.897,10.665,4.96,10.665z"/>
	</g>
	<g>
		<path d="M7.939,14.492c-0.34,0-0.679-0.122-0.938-0.369L4.979,12.2l-2.004,1.92c-0.515,0.493-1.354,0.496-1.874,0.009
			c-0.519-0.491-0.522-1.29-0.007-1.783l3.876-3.717l3.905,3.713c0.519,0.493,0.519,1.29,0,1.782
			C8.617,14.37,8.277,14.492,7.939,14.492z"/>
	</g>
</g>
</svg>
