<svg xmlns="http://www.w3.org/2000/svg" viewBox="0 0 16 16" enable-background="new 0 0 16 16"><path fill-rule="evenodd" clip-rule="evenodd" fill="#352E10" d="M8 0c4.418 0 8 3.582 8 8s-3.582 8-8 8-8-3.582-8-8 3.582-8 8-8z"/><path fill-rule="evenodd" clip-rule="evenodd" fill="#FFD004" d="M9.131 4.361l-.852.626c1.346.644 2.26 1.726 2.26 3.013s-.914 2.369-2.26 3.013l.852.626c1.697-.747 2.869-2.057 2.869-3.639 0-1.583-1.172-2.892-2.869-3.639zm.592 3.639c0-1.122-.777-2.073-1.934-2.652l-.767.562c.878.471 1.459 1.22 1.459 2.09s-.581 1.619-1.459 2.09l.767.562c1.156-.578 1.934-1.531 1.934-2.652zm-3.187-1.733l-.536.733c.489.287.65.501.65 1s-.161.713-.65 1l.536.732c.712-.397 1.178-1.017 1.178-1.732s-.466-1.335-1.178-1.733zm-2.536.733c-.552 0-1 .447-1 1 0 .553.448 1 1 1s1-.447 1-1c0-.553-.448-1-1-1z"/></svg>