<svg xmlns="http://www.w3.org/2000/svg" viewBox="0 0 16 16" enable-background="new 0 0 16 16">
  <path fill-rule="evenodd" clip-rule="evenodd" fill="#352E10" d="m8,0c4.418,0 8,3.582 8,8s-3.582,8 -8,8s-8,-3.582 -8,-8s3.582,-8 8,-8z"/>
  <path d="m6.15044,4.16168c-0.93108,0 -1.68556,0.79323 -1.68556,1.77135c0,0.9781 0.75448,1.77132 1.68556,1.77132c0.93108,0 1.68551,-0.79323 1.68551,-1.77132c0,-0.97812 -0.7553,-1.77135 -1.68551,-1.77135m5.58897,3.41061l-0.84108,0c0,0 -1.03031,-0.00936 -1.68217,0c0.79396,0.44475 1.593,1.62564 1.68217,2.55605l0,0.85202l2.52325,0l0,-1.70403c0,-0.97896 -0.52819,-1.72873 -1.68217,-1.70403m-4.20542,0.85202l-2.52325,0c-0.93108,0 -1.67041,0.66457 -1.67041,1.64269l0,1.77132l5.87584,-0.00595l0,-1.70403c0,-0.97896 -0.75109,-1.70403 -1.68217,-1.70403m3.3534,-4.26263c-0.7763,0 -1.4046,0.66117 -1.4046,1.47655s0.62912,1.47654 1.4046,1.47654c0.77548,0 1.4046,-0.66117 1.4046,-1.47654s-0.62825,-1.47655 -1.4046,-1.47655" fill="#FCD848"/>
</svg>