<?xml version="1.0" encoding="utf-8"?>
<!DOCTYPE svg PUBLIC "-//W3C//DTD SVG 1.1//EN" "http://www.w3.org/Graphics/SVG/1.1/DTD/svg11.dtd">
<svg version="1.1" id="Layer_1" xmlns="http://www.w3.org/2000/svg" xmlns:xlink="http://www.w3.org/1999/xlink" x="0px" y="0px"
	 width="16px" height="16px" viewBox="0 0 16 16" enable-background="new 0 0 16 16" xml:space="preserve">
<g>
	<path fill-rule="evenodd" clip-rule="evenodd" d="M2,7c0.553,0,1,0.447,1,1S2.553,9,2,9S1,8.553,1,8S1.447,7,2,7z"/>
	<path fill-rule="evenodd" clip-rule="evenodd" d="M8,7c0.553,0,1,0.447,1,1S8.553,9,8,9S7,8.553,7,8S7.447,7,8,7z"/>
	<path fill-rule="evenodd" clip-rule="evenodd" d="M14,7c0.553,0,1,0.447,1,1s-0.447,1-1,1s-1-0.447-1-1S13.447,7,14,7z"/>
</g>
</svg>
