<?xml version="1.0" encoding="utf-8"?>
<!-- Generator: Adobe Illustrator 16.0.0, SVG Export Plug-In . SVG Version: 6.00 Build 0)  -->
<!DOCTYPE svg PUBLIC "-//W3C//DTD SVG 1.1//EN" "http://www.w3.org/Graphics/SVG/1.1/DTD/svg11.dtd">
<svg version="1.1" id="Layer_1" xmlns="http://www.w3.org/2000/svg" xmlns:xlink="http://www.w3.org/1999/xlink" x="0px" y="0px"
	 width="16px" height="16px" viewBox="0 0 16 16" enable-background="new 0 0 16 16" xml:space="preserve">
<path fill="#ffffff" fill-rule="evenodd" clip-rule="evenodd" d="M3,5v8c0,1.104,0.896,2,2,2h6c1.104,0,2-0.896,2-2V5H3z M6,12c0,0.553-0.448,1-1,1
	s-1-0.447-1-1V8c0-0.553,0.448-1,1-1s1,0.447,1,1V12z M9,12c0,0.553-0.447,1-1,1c-0.552,0-1-0.447-1-1V8c0-0.553,0.448-1,1-1
	c0.553,0,1,0.447,1,1V12z M12,12c0,0.553-0.447,1-1,1s-1-0.447-1-1V8c0-0.553,0.447-1,1-1s1,0.447,1,1V12z"/>
<path fill="#ffffff" fill-rule="evenodd" clip-rule="evenodd" d="M4,2h8c1.104,0,2,0.896,2,2l0,0H2l0,0C2,2.896,2.896,2,4,2z"/>
<path fill="#ffffff" fill-rule="evenodd" clip-rule="evenodd" d="M7,1h2c0.553,0,1,0.448,1,1S9.553,3,9,3H7C6.448,3,6,2.552,6,2S6.448,1,7,1z"/>
</svg>
