<?xml version="1.0" encoding="utf-8"?>
<!-- Generator: Adobe Illustrator 16.0.0, SVG Export Plug-In . SVG Version: 6.00 Build 0)  -->
<!DOCTYPE svg PUBLIC "-//W3C//DTD SVG 1.1//EN" "http://www.w3.org/Graphics/SVG/1.1/DTD/svg11.dtd">
<svg version="1.1" id="Layer_1" xmlns="http://www.w3.org/2000/svg" xmlns:xlink="http://www.w3.org/1999/xlink" x="0px" y="0px"
	 width="15px" height="12px" viewBox="0 0 15 12" enable-background="new 0 0 15 12" xml:space="preserve">
<image display="none" overflow="visible" width="1024" height="768" xlink:href="../../../private/var/folders/6k/8jjg_tx9731dtvl9q2vm8m60t9265x/T/com.apple.mail/com.apple.mail.drag-T0x7f83d9c19210.tmp.w1qm1p/Файл_публичный.png"  transform="matrix(1 0 0 1 -811 -686)">
</image>
<path d="M0.369,10.594c1.318,0.846,2.881,1.339,4.561,1.339c5.473,0,8.467-4.535,8.467-8.466c0-0.129-0.004-0.256-0.01-0.384
	c0.582-0.42,1.088-0.943,1.484-1.542c-0.533,0.236-1.105,0.397-1.709,0.47c0.613-0.369,1.088-0.95,1.309-1.646
	c-0.572,0.34-1.211,0.588-1.887,0.722c-0.543-0.578-1.316-0.938-2.172-0.938c-1.645,0-2.975,1.331-2.975,2.975
	c0,0.234,0.025,0.46,0.076,0.678C5.041,3.675,2.85,2.491,1.383,0.692C1.125,1.13,0.979,1.642,0.979,2.187
	c0,1.032,0.525,1.943,1.322,2.478C1.814,4.648,1.355,4.515,0.955,4.29c0,0.014,0,0.024,0,0.037c0,1.441,1.023,2.645,2.385,2.919
	C3.09,7.314,2.828,7.351,2.557,7.351c-0.193,0-0.379-0.02-0.561-0.054C2.375,8.479,3.475,9.34,4.775,9.363
	c-1.02,0.799-2.303,1.274-3.695,1.274C0.84,10.636,0.604,10.622,0.369,10.594"/>
<g>
	<path d="M47.961-1.875c-2.087,0-3.779,1.609-3.779,3.593c0,1.987,1.692,3.596,3.779,3.596c2.088,0,3.781-1.608,3.781-3.596
		C51.742-0.266,50.049-1.875,47.961-1.875z M47.961,3.484c-1.024,0-1.857-0.789-1.857-1.767c0-0.975,0.833-1.767,1.857-1.767
		c1.026,0,1.859,0.792,1.859,1.767C49.82,2.695,48.987,3.484,47.961,3.484z"/>
	<g>
		<path d="M47.96,8.634c-1.938,0-3.63-0.588-4.643-1.613c-0.502-0.509-0.475-1.306,0.059-1.783c0.534-0.476,1.374-0.45,1.873,0.059
			c0.492,0.496,1.556,0.819,2.712,0.819c1.155,0,2.219-0.321,2.711-0.819c0.499-0.509,1.339-0.534,1.873-0.059
			c0.533,0.478,0.561,1.274,0.058,1.783C51.589,8.046,49.897,8.634,47.96,8.634z"/>
	</g>
	<g>
		<path d="M50.939,12.461c-0.34,0-0.679-0.122-0.938-0.369l-2.022-1.923l-2.004,1.92c-0.515,0.493-1.354,0.496-1.874,0.009
			c-0.519-0.491-0.522-1.29-0.007-1.783l3.876-3.717l3.905,3.713c0.519,0.493,0.519,1.29,0,1.782
			C51.617,12.339,51.277,12.461,50.939,12.461z"/>
	</g>
</g>
<path fill="#020000" d="M-31.997,7.403c-0.444-0.479-1.034-0.795-1.771-0.948V6.39c0.512-0.213,0.913-0.547,1.205-1.001
	c0.29-0.452,0.438-0.972,0.438-1.554c0-0.502-0.105-0.946-0.316-1.33c-0.212-0.383-0.529-0.69-0.958-0.921
	c-0.396-0.214-0.817-0.354-1.27-0.419c-0.454-0.068-1.116-0.103-1.991-0.103h-4.215V12.99h4.775c0.828,0,1.51-0.075,2.048-0.224
	c0.535-0.149,1.029-0.401,1.478-0.753c0.377-0.294,0.68-0.666,0.906-1.114c0.223-0.447,0.335-0.969,0.335-1.562
	C-31.333,8.523-31.554,7.881-31.997,7.403z M-38.142,3.05h0.208c0.534,0,0.936,0.004,1.205,0.014
	c0.271,0.007,0.504,0.054,0.702,0.14c0.208,0.091,0.362,0.238,0.461,0.44c0.098,0.202,0.148,0.4,0.148,0.594
	c0,0.261-0.046,0.49-0.138,0.688c-0.09,0.197-0.256,0.353-0.496,0.464c-0.218,0.102-0.433,0.158-0.636,0.168
	c-0.207,0.013-0.566,0.016-1.079,0.016h-0.376V3.05z M-34.327,10.057c-0.125,0.225-0.603,0.398-0.876,0.514
	c-0.311,0.134-0.614,0.207-0.912,0.216c-0.299,0.012-0.839,0.017-1.619,0.017h-0.159V7.813h0.552c0.536,0,0.961,0.007,1.277,0.014
	c0.317,0.008,0.569,0.047,0.75,0.119c0.298,0.104,0.802,0.262,0.951,0.471c0.15,0.207,0.224,0.498,0.224,0.864
	C-34.14,9.57-34.201,9.828-34.327,10.057z"/>
</svg>
