<svg xmlns="http://www.w3.org/2000/svg" viewBox="0 0 10 12"><path fill="#020000" d="M9.003 6.403c-.444-.479-1.034-.795-1.771-.948v-.065c.512-.213.913-.547 1.205-1.001.29-.452.438-.972.438-1.554 0-.502-.105-.946-.316-1.33-.212-.383-.529-.69-.958-.921-.396-.214-.818-.354-1.27-.419-.454-.068-1.116-.103-1.991-.103h-4.215v11.928h4.775c.828 0 1.51-.075 2.048-.224.535-.149 1.029-.401 1.478-.753.377-.294.68-.666.906-1.114.223-.447.335-.969.335-1.562 0-.814-.221-1.456-.664-1.934zm-6.145-4.353h.208c.534 0 .936.004 1.205.014.271.007.504.054.702.14.208.091.362.238.461.44.098.202.148.4.148.594 0 .261-.046.49-.138.688-.09.197-.256.353-.496.464-.217.1-.431.157-.635.167-.207.012-.566.015-1.079.015h-.376v-2.522zm3.815 7.007c-.125.224-.603.398-.876.513-.311.134-.614.207-.912.216-.299.012-.839.017-1.619.017h-.16v-2.99h.552c.536 0 .961.007 1.277.014.317.008.569.047.75.119.298.104.802.262.951.471.151.207.224.498.224.864 0 .289-.061.547-.187.776z"/></svg>