<svg xmlns="http://www.w3.org/2000/svg" viewBox="0 0 16 16" enable-background="new 0 0 16 16"><path fill="white" id="svg_1" d="m6.76196,6.94983l-0.31702,0l0,-2.125l0.17505,0c0.44897,0 0.78796,0.00299 1.01501,0.01099c0.22693,0.00604 0.42395,0.04602 0.59094,0.11804c0.17505,0.07697 0.30396,0.19995 0.38806,0.37097c0.08301,0.17102 0.1239,0.33698 0.1239,0.49902c0,0.22095 -0.03796,0.41296 -0.11499,0.57996s-0.21594,0.29602 -0.41797,0.39099c-0.18494,0.08502 -0.36304,0.13306 -0.53601,0.14105c-0.17297,0.00897 -0.47595,0.01398 -0.90698,0.01398zm1.8551,1.82697c-0.15295,-0.05798 -0.36304,-0.091 -0.63098,-0.09802c-0.26697,-0.00696 -0.62598,-0.01099 -1.07507,-0.01099l-0.46497,0l0,2.51599l0.13501,0c0.65698,0 1.10999,-0.00397 1.36206,-0.01398c0.25195,-0.01001 0.50793,-0.06903 0.76892,-0.18201c0.229,-0.099 0.396,-0.24298 0.50208,-0.435c0.10596,-0.19098 0.15796,-0.40802 0.15796,-0.651c0,-0.31 -0.06299,-0.55402 -0.18896,-0.729s-0.31409,-0.30597 -0.56604,-0.396zm7.35095,-8.73798l0,16l-16,0l0,-16l16,0zm-4,9.92401c0,-0.68298 -0.18604,-1.22601 -0.55896,-1.62903c-0.37402,-0.40198 -0.87109,-0.66797 -1.49109,-0.79895l0,-0.06604c0.43103,-0.18097 0.77002,-0.448 1.01501,-0.83099c0.24402,-0.38202 0.36804,-0.81799 0.36804,-1.30798c0,-0.42303 -0.08899,-0.79602 -0.26697,-1.12c-0.177,-0.32404 -0.44604,-0.58203 -0.80505,-0.776c-0.33301,-0.17999 -0.68799,-0.297 -1.06897,-0.354c-0.37903,-0.05603 -0.93799,-0.08502 -1.67603,-0.08502l-3.54797,0l0,10.04401l4.01904,0c0.6969,0 1.271,-0.06299 1.7229,-0.18903c0.45203,-0.12598 0.86609,-0.33698 1.24402,-0.63397c0.32007,-0.24799 0.57397,-0.56 0.76306,-0.93701c0.19092,-0.37799 0.28296,-0.81702 0.28296,-1.31598z"/></svg>
