<svg xmlns="http://www.w3.org/2000/svg" viewBox="0 0 16 16" enable-background="new 0 0 16 16"><path d="m15.79483,7.31333l-0.03636,-0.26387l-0.06993,-0.45409l-0.07459,-0.32449l-0.09417,-0.36458l-0.11562,-0.35338l-0.11096,-0.30397l-0.15944,-0.37296l-0.11935,-0.24802l-0.20793,-0.38788l-0.11562,-0.19021l-0.26294,-0.40374l-0.09231,-0.12401c-0.10723,-0.14545 -0.21632,-0.28999 -0.33381,-0.42705l-0.00839,-0.01399l-0.14173,-0.15105c-0.17343,-0.19208 -0.35619,-0.37484 -0.54827,-0.5492l-0.01306,-0.01119c-0.18555,-0.16691 -0.37763,-0.32449 -0.57904,-0.47367l-0.04102,-0.03077c-0.19021,-0.13893 -0.38695,-0.26853 -0.58929,-0.38975l-0.08019,-0.04849c-0.18928,-0.11002 -0.3851,-0.21073 -0.58463,-0.30491l-0.12681,-0.06154c-0.18649,-0.08392 -0.37763,-0.15758 -0.57158,-0.22565l-0.17343,-0.06341c-0.18369,-0.0606 -0.37204,-0.10909 -0.56226,-0.15571l-0.20979,-0.05408c-0.19021,-0.04102 -0.38416,-0.069 -0.57997,-0.0951l-0.21259,-0.03264c-0.26668,-0.02798 -0.53801,-0.04383 -0.81214,-0.04383c-0.25735,0 -0.5119,0.01306 -0.76366,0.03916c-0.20513,0.02051 -0.40561,0.05408 -0.60607,0.09044l-0.12681,0.01958c-0.48113,0.09417 -0.94455,0.23684 -1.38838,0.41772l-0.00186,0.00093c-0.37297,0.15199 -0.72823,0.3366 -1.06949,0.5436l-0.0774,0.04662c-0.82892,0.51563 -1.55062,1.18324 -2.12966,1.96647l-0.11002,0.14826l-0.24709,0.38136l-0.12961,0.21259l-0.19674,0.36924l-0.12868,0.26574l-0.15199,0.35618l-0.11656,0.31795l-0.11095,0.34034l-0.09604,0.37484l-0.07273,0.31516l-0.06993,0.45782l-0.03543,0.26015c-0.02424,0.24429 -0.03823,0.49138 -0.03823,0.74128c0,0.22565 0.01212,0.4485 0.03357,0.66948c0.01865,0.21073 0.04849,0.41772 0.08392,0.62286c0.04569,0.26667 0.1035,0.52868 0.17623,0.7851l0.00093,0.00559c0.25083,0.88766 0.65829,1.70819 1.18977,2.43362l0.06993,0.09324c0.17995,0.23777 0.37111,0.46528 0.57624,0.68067l0.02798,0.03077c0.22565,0.2331 0.46435,0.45222 0.71704,0.65549l0.0028,0.00186c0.2993,0.24057 0.6182,0.45595 0.95201,0.6499l0.1035,0.06341l0.37111,0.18928l0.25549,0.12308l0.34407,0.14079l0.31889,0.11655l0.32635,0.10257l0.37484,0.09697l0.30397,0.06714l0.45503,0.06993l0.25176,0.03357c0.24057,0.02331 0.48393,0.0373 0.73009,0.0373c4.22763,0 7.66642,-3.43877 7.66642,-7.66636c0.00093,-0.25362 -0.01306,-0.50071 -0.0373,-0.74501l-0.00007,0.00001zm-10.60077,4.29659c-0.31703,0.69652 -0.95014,0.51377 -1.35854,1.59444c-1.46671,-1.23639 -2.40286,-3.08445 -2.40286,-5.14882c0,-1.48068 0.48579,-2.84668 1.2998,-3.95999c0.07926,0.10257 0.09231,-0.31236 0.18928,-0.35245c0.28533,-0.11749 0.16598,-0.65643 0.52496,-0.34966c0.43264,0.3711 1.42288,2.0765 1.80797,2.04853c-0.17623,0.29371 -0.59676,0.38882 -0.86249,0.60048c-0.57718,0.45688 -0.80655,0.37296 -1.1329,0.82613c-0.32728,0.45409 -1.32591,1.07229 -1.34829,1.41448c-0.02331,0.34127 0.43078,0.77764 0.67695,0.71516c0.24616,-0.06247 0.88021,-0.01585 1.24479,0.13986c0.36458,0.15758 2.39261,0.21073 1.36134,2.47184l-0.00001,-0.00001zm9.22729,-4.03738c-0.72636,-0.08671 -0.90073,-1.33057 -2.0588,-0.37203c-0.64057,0.53055 0.77671,0.42332 0.77671,1.12637c0,1.4956 -1.4378,1.70912 -1.62522,4.00194c-0.23963,-0.18835 -0.9231,-0.41866 -0.97812,-0.89326c-0.05315,-0.47367 0.21819,-1.05177 -0.45222,-1.06203c-0.66855,-0.01026 -1.12824,-0.23124 -1.52545,-1.02473c-0.59489,-1.18977 -0.37577,-1.1935 -0.0429,-1.72032l1.32125,-0.25921l0.69932,0.3366l1.16553,-0.89325l-0.58277,-0.93242l-1.32032,0.19394c-0.38883,0.5436 -1.26531,1.11145 -1.32125,1.04897c-0.23124,-0.25642 -0.61913,0.40001 -0.79349,-1.35108c-0.01212,-0.12401 0.10816,-0.31143 0.26761,-0.5063c0.03729,0.01212 1.49654,-0.70678 1.22521,-1.28954c0,0 -0.27227,-1.90401 0.58277,-1.51518c0.16691,0.07552 1.1963,-0.00186 2.20892,0.04196c1.642,1.12823 2.75532,2.96417 2.90731,5.06398c-0.12215,0.02051 -0.26668,0.02704 -0.45409,0.00559l-0.00002,0z" fill="black"/></svg>